<svg width="52" height="96" viewBox="0 0 52 96" fill="none" xmlns="http://www.w3.org/2000/svg">
<path d="M3.1946 72.2141L1.85583 8.46755L3.19461 3.56152L49.7779 50.3676L45.3198 53.9373L33.0612 55.4975L47.7715 83.1354V89.1534L43.3138 92.4967L35.29 94.7256L17.0135 60.1781L3.1946 72.2141Z" fill="#FAFAFA"/>
<path d="M45.7031 95.8516H33.0908V91.125H45.7031V95.8516ZM33.0908 91.125H28.3633V81.6699H33.0908V91.125ZM50.4307 91.125H45.7031V80.2988H50.4307V91.125ZM28.3633 81.6699H23.6367V72.2158H28.3633V81.6699ZM45.7031 80.2988H40.9756V70.8447H45.7031V80.2988ZM4.72754 5.47559H9.4541V10.2021H4.72754V67.4883H9.4541V72.2158H4.72754V76.1328H0V0H4.72754V5.47559ZM23.6367 72.2158H18.9092V62.7607H23.6367V72.2158ZM40.9756 70.8447H36.249V61.3896H40.9756V70.8447ZM14.1816 67.4883H9.4541V62.7607H14.1816V67.4883ZM18.9092 62.7607H14.1816V58.0342H18.9092V62.7607ZM52 52.748H47.2725V56.6631H36.249V61.3896H31.5215V51.9355H47.2725V48.0205H52V52.748ZM47.2725 48.0205H42.5459V43.293H47.2725V48.0205ZM42.5459 43.293H37.8184V38.5664H42.5459V43.293ZM37.8184 38.5664H33.0908V33.8389H37.8184V38.5664ZM33.0908 33.8389H28.3633V29.1113H33.0908V33.8389ZM28.3633 29.1113H23.6367V24.3838H28.3633V29.1113ZM23.6367 24.3838H18.9092V19.6572H23.6367V24.3838ZM18.9092 19.6572H14.1816V14.9297H18.9092V19.6572ZM14.1816 14.9297H9.4541V10.2021H14.1816V14.9297Z" fill="#2E2E2E"/>
</svg>
